<?xml version="1.0" encoding="UTF-8"?><svg id="Layer_2" xmlns="http://www.w3.org/2000/svg" xmlns:xlink="http://www.w3.org/1999/xlink" viewBox="0 0 62.44 62.44"><defs><style>.cls-1{fill:url(#Rocket-3);}.cls-2{fill:url(#Rocket-2);}.cls-3{fill:url(#Rocket-4);}.cls-4{fill:url(#Rocket);}</style><linearGradient id="Rocket" x1="7.49" y1="36.22" x2="47.45" y2="36.22" gradientTransform="matrix(1, 0, 0, 1, 0, 0)" gradientUnits="userSpaceOnUse"><stop offset="0" stop-color="#ed0d6c"/><stop offset="1" stop-color="#ef4725"/></linearGradient><linearGradient id="Rocket-2" x1="24.98" y1="51.2" y2="51.2" xlink:href="#Rocket"/><linearGradient id="Rocket-3" x1="44.96" y1="37.46" x2="54.95" y2="37.46" xlink:href="#Rocket"/><linearGradient id="Rocket-4" x1="0" y1="18.73" x2="62.44" y2="18.73" xlink:href="#Rocket"/></defs><g id="Layer_1-2"><polygon class="cls-4" points="47.45 29.97 44.96 32.47 42.46 34.97 34.97 42.46 32.47 44.96 29.97 47.45 22.48 54.95 7.49 39.96 9.99 37.46 12.49 34.97 14.99 37.46 17.48 39.96 19.98 42.46 22.48 44.96 24.98 42.46 27.47 39.96 29.97 37.46 37.46 29.97 34.97 27.47 32.47 29.97 29.97 32.47 27.47 34.97 24.98 37.46 22.48 39.96 19.98 37.46 17.48 34.97 19.98 32.47 22.48 29.97 29.97 22.48 32.47 19.98 34.97 17.48 37.47 19.98 39.96 22.48 42.46 24.98 44.96 27.47 47.45 29.97"/><polygon class="cls-2" points="47.45 44.96 42.46 49.95 39.96 52.45 37.46 54.95 29.97 62.44 27.47 59.94 24.98 57.45 27.48 54.95 32.47 49.95 34.97 47.45 37.46 44.96 39.96 42.46 42.46 39.96 44.96 42.46 47.45 44.96"/><polygon class="cls-1" points="54.95 37.46 52.45 39.96 49.95 42.46 44.96 37.46 47.45 34.97 49.95 32.47 54.95 37.46"/><polygon class="cls-3" points="62.44 29.97 57.45 34.97 54.95 32.47 52.45 29.97 49.95 27.47 47.45 24.98 44.96 22.48 42.46 19.98 39.96 17.48 37.47 14.99 34.97 12.49 32.47 9.99 29.97 12.49 27.48 14.99 24.98 17.48 22.48 19.98 19.98 22.48 17.48 24.98 14.99 27.48 12.49 29.97 9.99 32.47 7.49 34.97 5 37.46 0 32.47 2.5 29.97 7.49 24.98 9.99 22.48 27.48 5 29.97 2.5 32.47 0 34.97 2.5 37.46 5 44.96 12.49 47.45 14.98 49.95 17.48 52.45 19.98 54.95 22.48 62.44 29.97"/></g></svg>